# xmcd
# 
# Track frame offsets:
#     150
#     16689
#     32988
#     50125
#     67452
#     85953
#     103112
#     120785
#     137258
#     154738
# 
# Disc length: 2287
# 
# Revision: 1
# Processed by: cddbd v1.5.2PL0 Copyright (c) Steve Scherf et al.
# Submitted via: BonkEnc v1.0.15
# 
DISCID=8008ed0a
DTITLE=OLIVER DRAGOJEVIĆ - Oliver
DYEAR=1987
DGENRE=zabavni
TTITLE0=Žuto lišće ljubavi
TTITLE1=Serenada
TTITLE2=Vrati nam se, mama
TTITLE3=Za mrvu tvoje Llubavi
TTITLE4=Hvala, dušo moja
TTITLE5=Majko
TTITLE6=Dome moj
TTITLE7=Stine
TTITLE8=Lady luna
TTITLE9=More
EXTD=
EXTT0=
EXTT1=
EXTT2=
EXTT3=
EXTT4=
EXTT5=
EXTT6=
EXTT7=
EXTT8=
EXTT9=
PLAYORDER=
